<?xml version="1.0" encoding="UTF-8" standalone="no"?>
<svg
   width="100"
   height="100"
   viewBox="0 0 100 100"
   version="1.1"
   id="svg5"
   xmlns="http://www.w3.org/2000/svg"
   xmlns:svg="http://www.w3.org/2000/svg"
   xmlns:rdf="http://www.w3.org/1999/02/22-rdf-syntax-ns#">
  <g
     id="layer1">
    <path
       style="fill:#000000;stroke-width:0.264583"
       id="path540"
       d="m 35.116021,26.621647 c 2.285047,-2.898543 4.617098,-5.780938 7.416009,-8.208923 0.827637,-0.717956 1.709414,-1.371015 2.564122,-2.056523 1.068189,-0.660927 2.100069,-1.384502 3.204567,-1.982781 4.412541,-2.390162 9.438193,-4.084052 14.465696,-4.4389211 1.023261,-0.072227 2.051611,0.00345 3.077417,0.00517 1.951257,0.3385941 3.308651,0.3515921 5.001778,1.4884931 0.344133,0.231079 -1.315029,-0.681689 -1.211551,-0.280296 0.246523,0.956249 1.266476,1.528608 1.754664,2.387012 1.591056,2.797621 1.844291,4.543041 2.727659,7.704165 0.30477,1.704368 0.711543,3.393614 0.91431,5.113102 1.142309,9.686999 -0.53272,19.51206 -3.592688,28.708757 -0.863573,2.595454 -1.974238,5.102056 -2.961356,7.653084 -1.193687,2.271157 -2.237955,4.627351 -3.581056,6.813468 -3.468706,5.645877 -8.058415,10.550929 -13.429298,14.423355 -3.711794,2.676216 -5.649783,3.433699 -9.706956,5.447149 -4.626637,1.953093 -9.438444,3.500382 -14.422919,4.213569 -1.769855,0.253235 -5.266068,0.541438 -7.156898,0.149296 -0.865065,-0.179408 -1.637378,-0.664146 -2.456066,-0.996219 0.466398,-0.07654 1.389126,0.242914 1.399194,-0.229614 0.02599,-1.219943 -1.004383,-2.235507 -1.321565,-3.413781 -0.425436,-1.580417 -0.706432,-3.201866 -0.8969,-4.827426 -0.547476,-4.67247 -0.477422,-8.91037 -0.08129,-13.621856 0.236072,-2.807747 0.681975,-5.593889 1.022963,-8.390837 2.164319,-13.420444 6.762247,-26.289438 12.69394,-38.482023 0.685064,-1.408148 1.431192,-2.785762 2.146789,-4.178643 0.56551,-0.983122 1.131022,-1.966244 1.696532,-2.949366 0,0 -3.199415,-1.839149 -3.199415,-1.839149 v 0 c -0.534112,1.007224 -1.068221,2.014448 -1.602333,3.021673 -0.679484,1.418072 -1.384723,2.824089 -2.03845,4.254218 -5.648325,12.356591 -10.281536,25.235944 -12.558856,38.669115 -0.371523,2.790558 -0.840822,5.569836 -1.114569,8.371679 -0.465687,4.766357 -0.607179,8.854731 -0.159783,13.585618 0.103087,1.090075 0.891124,7.042309 1.962523,8.339249 1.362548,1.649378 3.340991,2.673149 5.011487,4.009723 0.828744,0.290182 1.620733,0.722447 2.486233,0.870543 1.913485,0.327416 5.316376,-0.01479 7.102396,-0.296289 4.979405,-0.784804 9.789167,-2.349061 14.410808,-4.335594 4.114951,-2.070093 5.955679,-2.78269 9.706288,-5.54078 5.357611,-3.939837 9.923478,-8.925232 13.370626,-14.616025 1.335913,-2.205419 2.372772,-4.578654 3.559161,-6.867983 0.989526,-2.56114 2.095281,-5.080354 2.968578,-7.68342 2.468401,-7.357645 4.088614,-15.071241 4.220313,-22.853208 0.07955,-4.700958 -0.408535,-6.479207 -1.150612,-10.975667 -0.819759,-3.181067 -1.044829,-4.91808 -2.547612,-7.764028 -1.764354,-3.341312 -3.13823,-3.739104 -6.923642,-5.9279004 -0.732682,-0.423651 -1.540047,-0.7244789 -2.358226,-0.9410149 -0.878086,-0.232391 -1.797293,-0.2644005 -2.69594,-0.3966006 -1.026374,0.01824 -2.056508,-0.034919 -3.079126,0.054721 -5.052234,0.4428691 -10.078206,2.1845156 -14.523262,4.5812369 -1.12319,0.605612 -2.177528,1.331039 -3.266294,1.996559 -0.868683,0.688613 -1.764165,1.344708 -2.606051,2.065838 -2.834735,2.428141 -5.189103,5.321689 -7.613729,8.1397 0,0 3.37239,2.028375 3.37239,2.028375 z" />
  </g>
</svg>
