<?xml version="1.0" encoding="UTF-8" standalone="no"?>
<svg
   width="100"
   height="100"
   viewBox="0 0 100 100"
   version="1.1"
   xmlns="http://www.w3.org/2000/svg"
   xmlns:svg="http://www.w3.org/2000/svg"
   xmlns:rdf="http://www.w3.org/1999/02/22-rdf-syntax-ns#">
  <g
     id="layer1">
    <rect width="100" height="100" fill="white" />
    <path
       style="fill:#000000;stroke-width:0.346457"
       id="path114"
       d="m 24.123353,5.0351905 c 1.139054,11.8856075 2.513092,23.7438575 3.975484,35.5936755 1.691406,14.209348 3.518267,28.401987 5.313663,42.598422 0,0 4.32554,2.131263 4.32554,2.131263 v 0 C 35.691044,71.121733 33.666827,56.879573 32.05507,42.585434 30.685321,30.86765 29.364766,19.137363 28.750287,7.3505952 c 0,0 -4.626934,-2.3154047 -4.626934,-2.3154047 z" />
    <path
       style="fill:#000000;stroke-width:0.346457"
       id="path116"
       d="m 58.774736,8.3682399 c 0.537858,15.7994161 2.687713,31.4919401 4.733874,47.1510211 1.677568,12.762383 3.978914,25.42554 6.39265,38.064778 0,0 4.295879,2.082515 4.295879,2.082515 v 0 C 71.519083,82.98785 69.034826,70.263696 67.340265,57.409593 66.075766,47.634072 65.840017,46.298403 64.827738,36.55923 64.224909,30.75939 63.69261,25.275144 63.427782,19.468341 c -0.11218,-2.459617 -0.102805,-6.128539 -0.108605,-8.784592 0,0 -4.544447,-2.3155091 -4.544447,-2.3155091 z" />
    <path
       style="fill:#000000;stroke-width:0.346457"
       id="path118"
       d="M 7.1910496,38.593902 C 24.505361,38.308863 41.823372,38.294338 59.139645,38.255344 c 12.005195,-0.02294 24.010279,0.02709 36.015286,0.0851 0,0 -3.480234,-2.528539 -3.480234,-2.528539 v 0 c -11.926915,0.05841 -23.853915,0.108187 -35.781029,0.0851 -17.626951,-0.03946 -35.25548,-0.05779 -52.8805644,-0.338556 0,0 4.177946,3.035454 4.177946,3.035453 z" />
    <path
       style="fill:#000000;stroke-width:0.346457"
       id="path120"
       d="m 12.225756,66.473606 c 11.582554,-0.567247 23.191632,-0.549279 34.785883,-0.635219 3.679315,-0.01087 7.358615,-0.0273 11.03794,-0.03267 8.30276,-0.01205 11.798953,-0.036 19.959132,0.139269 7.084681,0.152163 14.164436,0.464141 21.243345,0.77621 0,0 -3.802954,-2.785391 -3.802954,-2.785391 v 0 C 88.458099,63.707353 81.466405,63.472957 74.472111,63.369151 65.293989,63.232938 64.047535,63.29597 54.623113,63.317391 c -3.68746,0.0083 -7.374934,0.01035 -11.062401,0.01545 -11.85285,-0.01087 -23.713734,-0.168413 -35.5630946,0.137165 0,0 4.2281386,3.003599 4.2281386,3.0036 z" />
  </g>
</svg>
