<?xml version="1.0" encoding="UTF-8" standalone="no"?>
<svg
   width="100"
   height="100"
   viewBox="0 0 100 100"
   version="1.1"
   id="svg5"
   xmlns="http://www.w3.org/2000/svg"
   xmlns:svg="http://www.w3.org/2000/svg"
   xmlns:rdf="http://www.w3.org/1999/02/22-rdf-syntax-ns#">
  <g
     id="layer1">
    <path
       style="fill:#000000;stroke-width:0.264583"
       id="path283"
       d="m 82.161629,13.93156 c -2.494566,4.876922 -6.02651,9.112065 -9.665557,13.166992 -2.778106,3.095593 -6.284169,6.714644 -9.149112,9.711792 -6.11279,6.236014 -11.937677,12.753551 -18.309206,18.733065 -4.369871,4.101016 -5.125291,4.633712 -9.685533,8.475282 -6.16772,4.986398 -12.599288,9.634921 -19.107964,14.163061 -1.185931,0.814141 -2.389563,1.601893 -3.589772,2.39467 0,0 3.282592,2.099055 3.282592,2.099055 v 0 c 1.175717,-0.811694 2.357301,-1.615156 3.513662,-2.454491 6.379469,-4.647438 12.680778,-9.407351 18.802458,-14.390762 4.208915,-3.56044 5.667772,-4.702336 9.705293,-8.491455 6.372002,-5.97997 12.143837,-12.549645 18.275379,-18.767605 2.346446,-2.438365 6.91492,-7.156876 9.233252,-9.678451 3.720023,-4.046153 7.329701,-8.244985 10.087953,-13.023884 0,0 -3.393445,-1.937269 -3.393445,-1.937269 z" />
    <path
       style="fill:#000000;stroke-width:0.264583"
       id="path283-3"
       d="M 81.052525,87.568567 C 78.557959,82.691645 75.026015,78.456502 71.386968,74.401575 68.608862,71.305982 65.102799,67.686931 62.237856,64.689783 56.125066,58.453769 50.300179,51.936232 43.92865,45.956718 39.558779,41.855702 38.803359,41.323006 34.243117,37.481436 28.075397,32.495038 21.643829,27.846515 15.135153,23.318375 c -1.185931,-0.814141 -2.389563,-1.601893 -3.589772,-2.39467 0,0 3.282592,-2.099054 3.282592,-2.099054 v 0 c 1.175717,0.81169 2.357301,1.615155 3.513662,2.45449 6.379469,4.647438 12.680778,9.407351 18.802458,14.390762 4.208915,3.56044 5.667772,4.702336 9.705293,8.491455 6.372002,5.97997 12.143837,12.549645 18.275379,18.767605 2.346446,2.438365 6.91492,7.156876 9.233252,9.678451 3.720023,4.046153 7.329701,8.244985 10.087953,13.023884 0,0 -3.393445,1.937269 -3.393445,1.937269 z" />
  </g>
</svg>
