<?xml version="1.0" encoding="UTF-8" standalone="no"?>
<svg
   width="100"
   height="100"
   viewBox="0 0 100 100"
   version="1.1"
   id="svg5"
   xmlns="http://www.w3.org/2000/svg"
   xmlns:svg="http://www.w3.org/2000/svg"
   xmlns:rdf="http://www.w3.org/1999/02/22-rdf-syntax-ns#">
  <g
     id="layer1">
    <path
       style="fill:#000000;stroke-width:0.264583"
       id="path452"
       d="m 13.813073,89.314757 c 2.500629,-3.176011 5.413599,-5.992402 8.35435,-8.753525 3.872037,-3.635521 6.929629,-6.34402 10.951954,-9.965563 2.277049,-2.10603 4.57518,-4.189492 6.831145,-6.318094 2.388497,-2.253652 4.735631,-4.550748 7.101591,-6.828052 4.53649,-4.366498 9.051726,-8.755059 13.592982,-13.116602 3.639031,-3.495018 7.913322,-7.539061 11.595248,-11.031286 6.312461,-5.812522 12.396816,-11.864323 18.454886,-17.939202 0,0 -3.127614,-1.912508 -3.127614,-1.912508 v 0 c -5.936133,6.150198 -11.921579,12.256231 -18.148342,18.114607 -2.248328,2.175166 -9.408877,9.100042 -11.473426,11.108936 -6.86196,6.67698 -13.665845,13.423199 -20.677711,19.944141 -2.275946,2.1166 -4.603631,4.176873 -6.905447,6.265309 -4.298194,3.729122 -7.092613,6.116905 -11.213358,9.81533 -3.036297,2.725121 -6.044216,5.492615 -8.715445,8.584499 0,0 3.379187,2.03201 3.379187,2.03201 z" />
    <path
       style="fill:#000000;stroke-width:0.264583"
       id="path452-6"
       d="m 15.802351,14.16052 c 2.50063,3.176011 5.4136,5.992402 8.35435,8.753525 3.87204,3.635521 6.92963,6.34402 10.95196,9.965563 2.27705,2.10603 4.57518,4.189492 6.83114,6.318094 2.3885,2.253652 4.73563,4.550748 7.10159,6.828052 4.53649,4.366498 9.05173,8.755059 13.59298,13.116602 3.63904,3.495018 7.91333,7.539061 11.59525,11.031286 6.31246,5.812522 12.396819,11.864323 18.454889,17.939202 0,0 -3.127614,1.912508 -3.127614,1.912508 v 0 C 83.620761,83.875154 77.635321,77.769121 71.408551,71.910745 c -2.24833,-2.175166 -9.40887,-9.100042 -11.47342,-11.108936 -6.86196,-6.67698 -13.66585,-13.423199 -20.67771,-19.944141 -2.27595,-2.1166 -4.60363,-4.176873 -6.90545,-6.265309 -4.29819,-3.729122 -7.09261,-6.116905 -11.21336,-9.81533 -3.0363,-2.725121 -6.04421,-5.492615 -8.71544,-8.584499 0,0 3.37918,-2.03201 3.37918,-2.03201 z" />
  </g>
</svg>
