<?xml version="1.0" encoding="UTF-8" standalone="no"?>
<svg
   width="100"
   height="100"
   viewBox="0 0 26.458333 26.458333"
   version="1.1"
   xmlns="http://www.w3.org/2000/svg"
   xmlns:svg="http://www.w3.org/2000/svg">
  <g
     id="layer1">
    <path
       style="fill:#000000;stroke-width:0.264583"
       id="path453"
       d="m 12.131915,11.373843 c -0.312236,-0.01093 0.05428,0.0065 -0.434285,-0.04391 -0.116151,-0.01199 -0.232792,-0.01864 -0.349241,-0.02727 -0.132422,-0.0098 -0.265457,-0.04325 -0.397368,-0.02804 -0.26155,0.03016 -0.389193,0.170001 -0.588138,0.319763 -0.05579,0.111919 -0.135932,0.214721 -0.167377,0.335758 -0.105328,0.405429 6.88e-4,0.523395 0.213406,0.886452 0.07991,0.136395 0.162061,0.274122 0.268863,0.390671 0.09427,0.102867 0.20377,0.196348 0.327738,0.260376 0.674466,0.348354 1.372842,0.648322 2.059264,0.972483 0.121192,-0.0797 0.265499,-0.132233 0.363577,-0.239099 0.215745,-0.235077 0.312498,-0.613674 0.37899,-0.909846 0.03421,-0.152384 0.07332,-0.306218 0.07568,-0.462377 0.0022,-0.146839 -0.04544,-0.290261 -0.06207,-0.436172 -0.01084,-0.09511 -0.01352,-0.190978 -0.02028,-0.286467 -0.480616,-0.709545 -0.294209,-0.49767 -1.98817,-1.062736 -0.08138,-0.02715 -0.08868,0.146898 -0.132356,0.22074 -0.04331,0.07322 -0.103626,0.139124 -0.128609,0.220445 -0.02546,0.08288 -0.0079,0.17341 -0.01882,0.259421 -0.0084,0.06595 -0.02596,0.130393 -0.03894,0.195589 0.01793,0.05552 0.0053,0.134156 0.05378,0.166555 0.574484,0.383633 1.171753,0.734133 1.781416,1.058966 0.05455,0.02907 0.127526,0.01131 0.185092,-0.0112 0.03465,-0.01355 0.03776,-0.06725 0.06863,-0.08801 0.0107,-0.0072 0.01655,0.04447 0.0052,0.03835 -0.571814,-0.308166 -1.133584,-0.634618 -1.700376,-0.951927 -0.109476,0.219671 -0.08087,0.115793 -0.106708,0.387838 -0.0066,0.06971 -0.01339,0.139493 -0.01567,0.209476 -0.002,0.06284 -0.0137,0.259446 0.06309,0.310497 0.553488,0.36799 1.136624,0.689312 1.704936,1.033968 0.03258,-0.07469 0.09236,-0.142761 0.09773,-0.224068 0.0065,-0.09795 -0.124492,-0.289271 -0.202935,-0.336677 -0.656398,-0.396683 -1.332446,-0.759903 -1.998669,-1.139854 0,0 1.487831,1.197107 1.487831,1.197107 v 0 c -0.437797,-0.259571 -0.874549,-0.520913 -1.313391,-0.778714 -0.05274,-0.03098 0.101639,0.06833 0.155012,0.09821 0.02855,0.01598 0.05902,0.04933 0.09007,0.03901 0.04812,-0.016 0.07311,-0.07028 0.109667,-0.105426 0.550147,0.338011 1.100293,0.676023 1.65044,1.014035 -0.0181,-0.01932 -0.04195,-0.03455 -0.05431,-0.05797 -0.02406,-0.04559 -0.05403,-0.09376 -0.05294,-0.1453 0.0012,-0.05589 0.04853,-0.102019 0.05931,-0.156873 0.0137,-0.06975 0.0089,-0.141893 0.01332,-0.21284 0.01291,-0.06153 0.02581,-0.123069 0.03872,-0.184603 -0.548622,-0.390529 -1.088288,-0.793953 -1.645866,-1.171585 -0.01317,-0.0089 -0.0077,0.03322 -0.02,0.04334 -0.01419,0.01169 -0.03464,0.02035 -0.05263,0.01652 -0.03728,-0.008 -0.135347,-0.06988 -0.102992,-0.04972 0.520917,0.324585 1.042654,0.647957 1.569204,0.963322 0.03539,0.02119 -0.06293,-0.05334 -0.09439,-0.08001 -0.01495,-0.09443 -0.05668,-0.286431 -0.01828,-0.377174 0.02854,-0.06745 0.107624,-0.101224 0.148344,-0.162108 0.02646,-0.03956 0.08827,-0.106114 0.04961,-0.133863 -0.325095,-0.233357 -2.247977,-1.359346 -1.477117,-0.907515 0.150777,0.283248 0.235185,0.352351 0.210363,0.701098 -0.01001,0.140604 -0.07712,0.271515 -0.104039,0.40988 -0.05046,0.259341 -0.01447,0.611678 -0.267716,0.802907 -0.09786,0.0739 -0.238477,0.05726 -0.357716,0.08588 0.46023,0.313226 0.930771,0.611812 1.380688,0.939677 0.12065,0.08792 -0.27659,-0.122511 -0.39097,-0.218445 -0.15425,-0.129376 -0.437381,-0.52255 -0.49944,-0.729718 -0.07004,-0.233799 0.0014,-0.378557 0.06286,-0.592067 0.07173,-0.0533 0.130292,-0.131981 0.215184,-0.159884 0.109663,-0.03604 0.230296,-0.01626 0.345445,-0.02439 0.102393,-0.0072 0.204991,-0.03137 0.307181,-0.02168 0.143511,0.01361 0.281058,0.06465 0.422802,0.0909 0.08949,0.01657 0.180516,0.02351 0.270448,0.03749 0.05227,0.0081 0.104047,0.0192 0.15607,0.0288 0,0 -1.588128,-1.217995 -1.588128,-1.217995 z" />
  </g>
</svg>
