<?xml version="1.0" encoding="UTF-8" standalone="no"?>
<svg
   width="100"
   height="100"
   viewBox="0 0 26.458333 26.458333"
   version="1.1"
   xmlns="http://www.w3.org/2000/svg"
   xmlns:svg="http://www.w3.org/2000/svg">
  <g
     id="layer1">
    <path
       style="fill:#000000;stroke-width:0.264583"
       d="M 11.136144,9.204857 C 10.528998,9.177545 9.9213454,9.184804 9.3138687,9.184804 c -0.2262605,0 -0.4525211,0 -0.6787819,0 -0.048622,0 -0.1014399,-0.019759 -0.1458666,0 C 8.3821264,9.2324321 8.2477916,9.4006735 8.1607728,9.4768203 7.8467314,9.7516253 7.700243,10.007601 7.5953802,10.421918 7.491941,10.83061 7.4797318,11.089235 7.4797318,11.510765 c 0,0.07319 -0.013404,0.147622 0,0.219577 0.025556,0.137193 0.1866607,0.359373 0.2336975,0.460617 0.050288,0.108241 0.069772,0.229849 0.1258152,0.335225 0.055376,0.104121 0.1377804,0.191441 0.2055974,0.287921 0.4749562,0.6757 0.8798102,1.206734 1.5336485,1.725831 0.8751876,0.694832 2.3469896,0.410061 3.3498526,0.473891 0.264872,0.01686 1.237335,0.206181 1.605523,0.121861 1.001932,-0.229455 1.492026,-1.774198 1.603969,-2.641134 0.02326,-0.180144 0,-0.363279 0,-0.544918 0,-0.690443 -0.05937,-0.733336 -0.461464,-1.280888 C 15.50588,10.436579 15.279765,10.078019 15.020889,9.9308006 14.849735,9.8334689 14.556293,9.7128948 14.37755,9.6644842 14.289687,9.6406876 14.194136,9.6531468 14.107138,9.6263583 13.953647,9.5790976 13.815667,9.4879111 13.661207,9.4439188 c -0.10879,-0.030985 -0.225673,-0.020047 -0.33692,-0.040526 -0.110364,-0.020317 -0.215749,-0.064229 -0.326612,-0.081618 -0.0638,-0.010007 -0.130596,0.013557 -0.193735,0 -0.05306,-0.011393 -0.09411,-0.055669 -0.145585,-0.072863 -0.173054,-0.05781 -0.332968,-0.011417 -0.506086,-0.036149 -0.155978,-0.022283 -0.227415,-0.036149 -0.397638,-0.036149 -0.206312,0 -0.414914,0.028241 -0.618487,0.028241 -0.03079,0 -0.592642,-0.057869 -0.621734,-0.028241 -0.03072,0.031288 -0.04867,0.072957 -0.073,0.1094353"
       id="path488" />
  </g>
</svg>
