<?xml version="1.0" encoding="UTF-8" standalone="no"?>
<svg
   width="100"
   height="100"
   viewBox="0 0 26.458333 26.458333"
   version="1.1"
   xmlns="http://www.w3.org/2000/svg"
   xmlns:svg="http://www.w3.org/2000/svg">
  <g
     id="layer1">
    <path
       style="fill:#000000;stroke-width:0.264583"
       d="m 13.073362,10.181162 c -0.851983,-0.180857 -0.628251,-0.1889397 -1.45316,-0.163094 -0.279811,0.0088 -0.572727,-0.040264 -0.838487,0.04773 -0.515388,0.170643 -1.0769813,1.079829 -1.2244055,1.561183 -0.075568,0.246736 -0.070494,0.511281 -0.1097177,0.766331 -0.058779,0.382201 -0.1960668,0.932079 -0.1016691,1.31859 0.044116,0.180631 0.1601243,0.34341 0.2898979,0.476573 0.6452574,0.662113 0.8275294,0.689482 1.6701954,0.931966 0.319205,0.09185 0.637955,0.195616 0.967127,0.240052 1.037212,0.140019 2.25332,-0.147724 2.600608,-1.253776 0.06092,-0.194033 0.07094,-0.400576 0.100257,-0.601824 0.05113,-0.350934 0.207164,-1.333577 0.111836,-1.698296 -0.169232,-0.647468 -0.894216,-0.933502 -1.367872,-1.24714"
       id="path513" />
  </g>
</svg>
