<?xml version="1.0" encoding="UTF-8" standalone="no"?>
<svg
   width="100"
   height="100"
   viewBox="0 0 100 100"
   version="1.1"
   id="svg5"
   xmlns="http://www.w3.org/2000/svg"
   xmlns:svg="http://www.w3.org/2000/svg"
   xmlns:rdf="http://www.w3.org/1999/02/22-rdf-syntax-ns#">
  <g
     id="layer1">
    <path
       style="fill:#000000;stroke-width:0.264583"
       id="path512"
       d="m 43.883984,20.041269 c 1.59965,-1.68703 3.401973,-3.214898 5.401752,-4.411419 0.419216,-0.250828 0.859875,-0.463944 1.289812,-0.695916 1.708684,-0.814077 3.558191,-1.189174 5.429766,-1.376838 0.496554,-0.04979 0.99378,-0.109754 1.492808,-0.113685 0.502579,-0.004 1.003393,0.06005 1.50509,0.09007 0.515557,0.108051 1.042678,0.170968 1.54667,0.324153 0.550479,0.167315 1.083614,0.391536 1.605417,0.633905 0.546,0.253607 2.176315,0.703813 1.592705,0.851568 -0.606954,0.153666 -1.475214,-1.417509 -1.685994,-0.827949 -0.221173,0.618627 1.050287,0.791549 1.544079,1.224894 0.520914,0.457151 0.997651,0.962314 1.496476,1.443471 3.092547,3.454446 5.528989,7.464587 7.623931,11.588584 0.442783,0.871641 0.838687,1.766314 1.258033,2.649472 1.573871,3.426978 2.873269,6.971752 3.64263,10.669357 0.457144,2.197063 0.531431,3.145284 0.808061,5.355166 0.173498,2.040949 0.349441,3.160493 0.198845,5.216795 -0.291153,3.975568 -1.561764,7.756671 -2.84798,11.495569 -1.189038,3.263956 -2.740951,6.363298 -4.782227,9.177933 -1.260801,1.738468 -1.748431,2.225746 -3.153667,3.838281 -0.579874,0.563777 -1.122479,1.168617 -1.739625,1.69133 -2.563579,2.171319 -6.013183,4.083008 -9.137912,5.314188 -0.739335,0.291309 -1.503264,0.515861 -2.254895,0.773793 -4.142719,1.126114 -8.512162,1.510384 -12.764691,0.783831 -0.900737,-0.153895 -1.782246,-0.404514 -2.673371,-0.606769 -2.695416,-0.755949 -5.178991,-2.000229 -7.627056,-3.327668 -0.161287,-0.08745 0.650219,0.336775 0.498155,0.234112 -3.411461,-2.169462 -1.760141,-1.072457 -4.958871,-3.283614 -2.463841,-1.792484 -4.817784,-3.839663 -6.338687,-6.526181 -0.919117,-1.623523 -0.99751,-2.225675 -1.552202,-4.015322 -1.113293,-4.991198 -1.081603,-10.173359 -0.193018,-15.20032 0.207779,-1.175459 0.510187,-2.332212 0.76528,-3.498321 1.111866,-4.325702 2.542761,-8.570767 4.310978,-12.672962 1.007757,-2.337961 1.327806,-2.893555 2.448597,-5.116904 1.778257,-3.313589 3.806161,-6.511507 6.237161,-9.389146 0.380841,-0.45081 0.7899,-0.877003 1.184852,-1.315504 1.52795,-1.470316 3.114526,-3.009353 5.094462,-3.857947 0.270187,-0.115802 0.55359,-0.197943 0.830386,-0.296914 1.458122,-0.418277 2.989485,-0.29024 4.484222,-0.207634 0.514848,-0.0057 1.019046,0.08502 1.521127,0.184946 0,0 -3.166205,-2.382487 -3.166205,-2.382487 v 0 c -0.50854,-0.07106 -1.018707,-0.129244 -1.533078,-0.135297 -1.527683,-0.06471 -3.086365,-0.147539 -4.557475,0.353459 -0.282744,0.112888 -0.572529,0.209528 -0.84823,0.338665 -1.980687,0.927745 -3.57669,2.498972 -5.109752,4.01688 -2.895074,3.299485 -5.399344,6.919942 -7.398961,10.834244 -1.094897,2.215679 -1.439749,2.838413 -2.428921,5.161055 -1.759329,4.131025 -3.183859,8.399939 -4.305387,12.746855 -0.262428,1.173459 -0.571374,2.337472 -0.787285,3.520374 -0.921136,5.046573 -1.002217,10.257422 0.01909,15.292123 0.523516,1.811956 0.601664,2.457849 1.49707,4.11126 1.491502,2.75413 3.849999,4.863713 6.346123,6.686102 0.788361,0.548714 1.566029,1.113116 2.365082,1.64614 2.745454,1.831406 5.609257,3.48574 8.481375,5.105709 2.440945,1.37677 5.005152,2.505467 7.706662,3.263853 0.900287,0.192225 1.79161,0.432699 2.700861,0.576675 4.300474,0.680966 8.712332,0.271941 12.884917,-0.904049 0.755295,-0.268703 1.523217,-0.504259 2.265886,-0.806112 3.079682,-1.251704 6.680811,-3.275264 9.213012,-5.423106 0.624138,-0.5294 1.168357,-1.146381 1.752536,-1.719575 1.425691,-1.64461 1.891445,-2.108554 3.170989,-3.880564 2.056357,-2.8478 3.62816,-5.972167 4.802306,-9.281305 1.2822,-3.767117 2.592044,-7.592217 2.926758,-11.588647 0.174715,-2.086094 -0.0048,-3.194439 -0.178597,-5.263684 -0.271105,-2.186223 -0.357555,-3.2228 -0.799766,-5.396783 -0.757378,-3.7234 -2.039136,-7.296674 -3.621964,-10.745653 C 76.963225,32.07763 76.568106,31.17587 76.125408,30.297286 74.04618,26.17081 71.64035,22.15094 68.624775,18.638816 67.715212,17.72872 66.71247,16.629039 65.62436,15.910676 64.038416,14.86365 62.398198,13.90022 60.756609,12.942797 c -1.504267,-0.877331 -3.129703,-1.50294 -4.867108,-1.693746 -0.511683,-0.01711 -1.023239,-0.06415 -1.535049,-0.05133 -2.415466,0.06053 -4.831466,0.597413 -7.016504,1.623761 -0.433784,0.24219 -0.87776,0.466967 -1.301356,0.726571 -2.016312,1.235715 -3.825964,2.786473 -5.518282,4.428861 0,0 3.365675,2.064354 3.365675,2.064354 z" />
  </g>
</svg>
