<?xml version="1.0" encoding="UTF-8" standalone="no"?>
<svg
   width="1170"
   height="1000"
   viewBox="0 0 309.5625 264.58333"
   version="1.1"
   xmlns="http://www.w3.org/2000/svg"
   xmlns:svg="http://www.w3.org/2000/svg">
  <g
     id="layer1">
   <rect width="1170" height="1000" fill="white" />
    <path
       style="fill:#000000;stroke-width:0.264583"
       id="path255"
       d="m 12.902612,22.767235 c 0.01357,0.260733 0.04293,0.521122 0.04073,0.7822 -0.0033,0.386096 -0.05554,0.770816 -0.05706,1.156923 -0.0059,1.48562 0.0593,2.970836 0.0618,4.456466 0.01118,6.662784 -0.04295,0.442304 0.04674,8.001552 -0.04316,10.349925 -0.0312,20.700991 -0.256255,31.048882 -0.140909,7.133611 0.04043,14.268511 -0.208949,21.400058 -0.155689,4.45235 -0.285856,6.242717 -0.545063,10.698744 -0.156693,3.77752 -0.518837,7.5437 -0.693363,11.32012 -0.09434,2.04123 -0.127269,4.08484 -0.189532,6.12731 -0.193358,6.34284 -0.326682,12.68292 -0.419615,19.02797 -0.02106,12.19271 -0.02679,24.38519 -0.09041,36.57779 -0.05746,4.78971 -0.01552,4.90067 -0.236232,9.58117 -0.07117,1.50927 -0.20003,3.01571 -0.254771,4.52566 -0.05564,1.5346 -0.02736,3.07136 -0.0763,4.60619 -0.047879,1.50168 -0.1427485,3.00149 -0.2141235,4.50224 -0.04487,1.50859 -0.08973,3.01719 -0.134598,4.52579 -0.01971,1.49103 -0.08849,7.00849 -0.125178,8.59031 -0.03134,1.35133 -0.10894,2.70157 -0.123727,4.05319 -0.01452,1.32741 0.04111,2.65483 0.03581,3.98231 -0.05153,12.91056 -0.104214,-5.17085 -0.0516,7.01157 -0.0062,5.12886 0.05696,10.25801 0.0028,15.38673 0.06248,2.66177 -0.0204,5.32249 -0.0098,7.98425 -0.03468,1.2001 -0.04272,0.6177 0.0157,1.74727 0,0 3.5072005,1.78703 3.5072005,1.78703 v 0 c 0.04703,-1.09761 0.03703,-0.52141 0.02083,-1.72872 0.02732,-1.09696 0.02262,-2.19396 -0.01032,-3.29102 -0.01386,-0.46148 -0.06216,-0.92209 -0.05968,-1.38376 0.0027,-0.50155 0.06599,-1.00131 0.07517,-1.50279 0.01108,-0.60553 -0.0096,-1.21123 -0.01443,-1.81685 0.01292,-4.01732 0.01877,-0.12675 -0.0468,-4.4168 -0.05606,-3.66795 0.03784,-7.33655 -0.02586,-11.00458 0.06727,-7.88488 -0.04796,-15.77353 0.207083,-23.65561 0.576181,-14.62679 -0.195496,5.72253 0.266078,-9.06447 0.194393,-6.22757 0.762134,-12.44251 0.667898,-18.67944 0.0048,-3.76315 -0.0052,-7.52633 0.0097,-11.28946 0.0082,-2.08398 0.049,-4.16784 0.04518,-6.25184 -0.0089,-4.8337 -0.14048,-8.14359 -0.09946,-12.97603 0.01713,-2.01816 0.0915,-4.03543 0.137251,-6.05314 0.03961,-4.23676 0.01914,-8.47449 0.117633,-12.71029 0.184427,-7.93177 0.712565,-15.85566 1.120653,-23.77739 0.325219,-5.291278 0.706899,-10.593298 0.76576,-15.896556 0.02009,-1.80993 -0.06081,-3.619939 -0.04633,-5.429922 0.119366,-14.924754 0.203913,4.177551 0.09266,-10.764202 0.01503,-13.172826 -0.05479,2.457897 0.161561,-10.325661 0.0294,-1.737066 0.0014,-3.47468 0.01825,-5.211916 0.01694,-1.74861 0.06926,-3.496783 0.08309,-5.245422 0.0879,-11.114286 -0.118137,0.358984 0.103343,-10.214528 -0.04072,-1.479989 -0.110101,-2.959468 -0.12217,-4.439971 -0.0097,-1.190458 0.0495,-2.380567 0.05686,-3.571042 0.01314,-2.124962 -0.03953,-4.251008 -0.0061,-6.375547 0,0 -3.542056,-1.804768 -3.542056,-1.804768 z" />
    <path
       style="fill:#000000;stroke-width:0.264583"
       id="path257"
       d="m 51.31415,17.726141 c -0.01648,0.293128 -0.04478,0.585831 -0.04948,0.879385 -0.02513,1.570914 0.02233,3.142165 0.02516,4.713278 0.01175,6.524283 0.07057,13.04542 0.150884,19.569421 -0.02664,3.303019 -0.07444,6.605934 -0.07992,9.909053 -0.02024,12.189579 0.125958,24.379838 0.131985,36.569409 0.01537,31.115353 -0.131739,-5.408819 0.02021,25.202663 -0.0026,0.43178 -0.129069,21.73711 -0.128241,22.65699 0.0031,3.41575 0.07433,6.83121 0.0785,10.24695 0.004,3.29258 -0.04551,6.58502 -0.05393,9.87758 -0.01619,6.33032 0.0036,12.66067 0.0027,18.99101 0.0047,2.95012 0.02215,5.90024 0.014,8.85035 -0.03471,12.58476 -0.09745,3.80351 -0.0727,15.69034 0.003,1.43494 0.07467,10.32645 0.06231,12.12981 -0.0105,1.53258 -0.06101,3.06462 -0.09151,4.59693 -0.07826,3.57826 0.08615,7.15931 0.04513,10.73718 -0.01201,1.04687 -0.09656,2.09214 -0.106119,3.13904 -0.0092,1.00415 0.04381,2.00799 0.04996,3.01216 0.0057,0.93987 -0.0095,1.87974 -0.01426,2.81962 -0.01998,0.86058 -0.04812,1.72101 -0.05991,2.58174 -0.01154,0.84314 0.01513,1.68679 -0.01008,2.52964 -0.07946,2.6549 -0.164987,1.89738 -0.285533,4.41707 -0.324427,6.78133 0.219905,-2.30145 -0.127691,3.29032 -0.102182,0.85504 -0.159316,1.70674 -0.415621,2.53031 0,0 3.52238,1.93052 3.52238,1.93052 v 0 c 0.183597,-0.88215 0.309197,-1.77275 0.349128,-2.67471 0.179938,-1.79554 0.203539,-3.56986 0.27509,-5.3719 0.09882,-2.48879 0.33841,-4.97607 0.211704,-7.4703 0.06734,-6.56906 0.0051,-13.13999 0.02267,-19.70933 -0.07713,-5.58729 -0.04512,-11.16792 -0.02734,-16.75555 0.02609,-8.19952 -0.05355,-16.39877 -0.05427,-24.59826 -0.0087,-3.09284 -0.04689,-16.01728 -0.04717,-19.01366 -5.29e-4,-6.69301 0.07572,-13.38592 0.06493,-20.07892 -0.0059,-3.66595 -0.05333,-7.3317 -0.07999,-10.99755 -0.0061,-3.92498 -0.01228,-7.84996 -0.01841,-11.77493 0.0083,-8.38578 0.07802,-16.771475 0.06892,-25.157254 -0.0047,-4.284985 -0.08791,-8.5697 -0.08442,-12.854685 0.0033,-4.093073 0.09796,-8.185709 0.104884,-12.278776 0.0064,-3.797154 -0.04322,-7.594197 -0.06482,-11.391299 0.01447,-3.30922 0.02894,-6.618441 0.0434,-9.927659 0.02643,-4.933979 0.01791,-9.868145 0.05752,-14.802035 0.01238,-1.540938 0.06019,-3.081434 0.07627,-4.62234 0.01082,-1.036858 0.0029,-2.073828 0.0044,-3.110742 -0.0084,-0.533422 -0.02786,-1.066787 -0.02511,-1.600268 0.0016,-0.29536 0.02527,-0.590187 0.03791,-0.88528 0,0 -3.523517,-1.795321 -3.523517,-1.795321 z" />
    <path
       style="fill:#000000;stroke-width:0.264583"
       id="path259"
       d="m 90.718204,20.517946 c 0.211439,2.035193 0.284588,2.561582 0.405378,5.003311 0.218763,4.422164 0.341414,10.43694 0.436751,14.639505 0.32563,14.353984 0.227261,9.404514 0.345675,24.782057 0.122809,18.087472 0.369319,36.174061 0.469032,54.261671 0.124844,22.64603 -0.04381,-0.0476 0.118544,20.30403 -0.03137,2.80748 -0.09587,5.61479 -0.09411,8.42244 0.0016,2.68195 0.0782,5.36335 0.104418,8.04516 0.05008,5.12326 0.03845,10.24705 0.09986,15.37018 0.165306,9.28686 0.100462,4.73515 0.1983,13.65508 0.175339,5.35263 0.0904,10.70774 0.115782,16.06128 0.0074,1.56706 0.06464,3.13365 0.06914,4.70072 0.02828,9.8621 -0.160909,-0.71237 0.05894,9.09258 0.01474,1.42462 0.02127,2.84934 0.04424,4.27385 0.0214,1.32704 0.06671,2.65362 0.08892,3.98065 0.06472,3.86652 0.05519,7.73371 0.132937,11.59996 0.123759,2.06378 0.07062,4.13229 0.03121,6.19764 -0.02148,1.12635 -0.01804,2.24486 -0.200964,3.35692 0.0044,0.10098 0.0088,0.20197 0.01315,0.30296 0,0 3.557349,1.87636 3.557349,1.87636 v 0 c 0.02593,-0.0972 0.05186,-0.19443 0.07779,-0.29164 0.09178,-1.35142 0.02812,-0.15771 0.04827,-1.92101 0.02957,-2.58723 -0.02564,-5.17402 -0.06492,-7.76171 0.08913,-3.955 0.06383,-0.78081 -0.04332,-5.02958 -0.124884,-4.95193 -0.08862,-9.90783 -0.286361,-14.8585 -0.01881,-3.03273 -0.06284,-6.06528 -0.07522,-9.09805 -0.01011,-2.47781 0.03924,-7.04088 -0.009,-9.49362 -0.03529,-1.79404 -0.147042,-3.58605 -0.182338,-5.3801 -0.03878,-1.97122 -0.02658,-3.94311 -0.03988,-5.91467 -0.08412,-7.06904 -0.241075,-14.13928 -0.283189,-21.2086 -0.04823,-8.09592 0.05569,-16.19315 -0.03935,-24.28908 C 95.663277,125.87815 95.391862,110.55987 95.26165,95.239955 95.22114,90.474441 95.2231,85.708639 95.18709,80.943089 95.1508,76.141541 95.09219,71.34019 95.044744,66.538741 c -0.01651,-4.441367 -0.03453,-8.882732 -0.04955,-13.324107 -0.03065,-9.065961 0.028,-11.551446 -0.198075,-20.073567 -0.174098,-6.562884 -0.15308,-4.187859 -0.437435,-9.264923 -0.02862,-0.510973 -0.04098,-1.022727 -0.06148,-1.534091 0,0 -3.580011,-1.824107 -3.580011,-1.824107 z" />
    <path
       style="fill:#000000;stroke-width:0.264583"
       id="path261"
       d="m 134.21555,15.050974 c -0.0378,13.221624 -0.15342,26.444401 -0.11091,39.666183 0.0143,4.447273 0.0685,8.894329 0.10275,13.341493 -0.0109,4.584451 -0.0174,9.168918 -0.0328,13.753356 -0.0554,16.551415 -0.0738,10.884045 -0.0846,27.334884 -0.0341,52.0379 0.0228,-22.68566 0.0789,26.41427 0.005,4.31742 -0.0281,8.6348 -0.0421,12.9522 -0.27316,32.63373 -0.0261,-6.53206 0.0224,25.2738 0.006,3.75869 -0.0797,7.51702 -0.0939,11.27569 -0.0325,8.62853 0.0395,17.25842 0.0557,25.88701 -0.27042,8.99437 -0.0807,17.99062 -0.16298,26.98641 0.14587,2.98253 -0.0687,5.96682 -0.0239,8.94888 0.0402,2.67296 0.10949,0.47816 10e-4,2.76749 -0.0353,0.30147 -0.0706,0.60295 -0.10584,0.90443 0,0 3.51275,1.83517 3.51275,1.83517 v 0 c 0.0237,-0.31865 0.0473,-0.63729 0.0709,-0.95594 0.0763,-1.51981 0.0538,-3.02116 0.04,-4.54257 -0.0134,-1.48245 0.0327,-2.96505 0.0186,-4.44749 -0.009,-0.91858 -0.0463,-1.83665 -0.0695,-2.75498 0.11548,-5.11441 0.005,-10.2312 0.005,-15.34696 -1.9e-4,-1.8006 0.041,-3.60124 0.0227,-5.40174 -0.0217,-2.12696 -0.0953,-4.25306 -0.14287,-6.37959 0.0455,-8.60868 0.0924,-17.21721 0.0639,-25.82607 -0.0404,-12.20146 -0.13931,-24.40296 -0.0367,-36.60459 -7.9e-4,-4.32495 0.008,-8.64991 -0.002,-12.97484 -0.0103,-4.24558 -0.0607,-8.49104 -0.0599,-12.73663 7.9e-4,-4.54499 0.0526,-9.08984 0.0649,-13.63481 0.0371,-13.718119 -0.12569,-27.435033 -0.0107,-41.15298 0.0208,-4.418973 0.0416,-8.837946 0.0625,-13.256918 0.0399,-4.053655 0.0966,-8.107178 0.11969,-12.160965 0.0198,-3.474463 0.006,-6.949037 0.009,-10.423556 0.0387,-2.673649 0.0889,-5.347158 0.11612,-8.020947 0.0191,-1.87683 -0.007,-3.754043 0.023,-5.630733 0.0174,-1.093138 0.0793,-2.185116 0.11887,-3.277674 0,0 -3.52989,-1.811283 -3.52989,-1.811283 z" />
    <path
       style="fill:#000000;stroke-width:0.264583"
       id="path265"
       d="m 175.65825,20.007661 c -0.0109,15.605417 0.18358,31.210108 0.22153,46.815286 0.0128,5.279024 -0.006,10.558081 -0.008,15.837122 0.19114,28.592261 0.11101,3.87909 -0.0272,30.964281 -0.0217,4.24643 0.003,8.49297 -0.005,12.73945 -0.0159,8.4162 -0.0761,16.83115 -0.0485,25.24735 -0.12117,7.65252 -0.17998,15.30719 -0.0529,22.95961 -0.0303,0.92873 -0.0824,1.85701 -0.0909,2.7862 -0.008,0.89078 0.0384,1.78133 0.0409,2.67215 0.003,1.1823 -0.0678,3.53408 -0.0157,4.72655 0.0365,0.83422 0.13349,1.66468 0.20023,2.49702 0.0358,0.85748 0.0717,1.71497 0.10751,2.57245 0.0688,0.92127 0.1289,1.84323 0.20649,2.7638 0.0789,0.93638 0.20637,1.86881 0.26304,2.8068 0.05,0.82776 0.0251,1.6585 0.0568,2.48717 0.0286,0.74938 0.0965,1.49694 0.12409,2.24636 0.0494,1.34044 0.0497,2.68227 0.084,4.02318 0.0274,4.9157 0.0421,9.8331 0.001,14.74931 -0.006,0.71006 -0.0249,1.42011 -0.0195,2.13018 0.005,0.71479 0.0435,1.42905 0.0518,2.14381 0.0279,2.40501 -0.0199,4.8131 -0.0277,7.21838 -0.0256,1.99194 0.17926,3.97838 0.2041,5.96799 -0.0211,0.93795 0.0782,1.87266 0.10753,2.80778 0.001,0.035 -0.0255,1.52132 -0.0272,1.6199 0,0 3.53796,1.80021 3.53796,1.80021 v 0 c -0.0162,-1.051 -0.0311,-0.51389 0.0516,-1.61113 0.002,-0.93944 -0.14054,-1.884 -0.11902,-2.8253 0.0401,-1.52742 0.0488,-0.26648 -0.0843,-1.83888 -0.13628,-1.60935 0.0294,-0.11478 -0.0341,-1.75949 -0.1135,-2.94176 -0.0992,0.80144 -0.0821,-2.34972 -0.0157,-1.72972 -0.0802,-3.46374 -0.0704,-5.19309 0.004,-0.68222 0.0538,-1.36367 0.057,-2.04589 0.0213,-4.51588 -0.13674,0.22472 0.051,-4.23153 -0.0587,-2.47152 -0.0392,-4.93522 -0.0434,-7.40684 -0.004,-2.46458 -0.10635,-4.92926 -0.0397,-7.39398 -0.006,-4.78085 -0.35672,-9.5601 -0.68902,-14.32719 -0.18199,-2.47072 -0.36116,-4.93251 -0.39809,-7.41064 -0.0924,-6.20238 0.064,1.56933 0.0295,-5.0435 -0.005,-0.95601 -0.0454,-1.9115 -0.0681,-2.86724 0.0203,-1.96973 0.0799,-3.93903 0.0884,-5.90885 0.005,-1.11147 -0.0256,-2.22282 -0.0312,-3.33429 -0.023,-4.58189 -0.0206,-9.16399 -0.0619,-13.74583 -0.006,-2.01035 -0.0384,-13.66394 -0.0468,-14.92263 -0.0231,-3.47426 -0.0926,-6.94824 -0.0968,-10.42259 -0.005,-4.23573 0.0731,-8.47129 0.0691,-12.70703 -0.0467,-49.489433 -0.1981,21.46531 -0.0497,-31.003443 -0.0214,-20.811582 0.0136,-41.623564 0.21526,-62.434141 0,0 -3.53096,-1.799115 -3.53096,-1.799115 z" />
    <path
       style="fill:#000000;stroke-width:0.264583"
       id="path267"
       d="m 213.66539,21.732523 c 0.11029,0.721365 0.24691,1.439194 0.33088,2.164096 0.78128,6.74488 0.94866,13.565134 1.22817,20.34174 0.58622,14.212295 0.40003,9.17184 0.73289,24.235309 0.41003,22.212205 0.15007,5.72098 0.38486,28.256865 0.0514,4.929937 0.14648,9.859457 0.17581,14.789587 0.0285,4.78818 -0.007,9.57654 -0.002,14.36481 0.015,14.33196 0.0209,12.13431 0.13059,26.11403 0.092,9.40998 0.1181,14.03399 0.28342,23.37048 0.0633,3.57432 0.17309,7.14776 0.22549,10.72226 0.0476,3.24999 0.0351,6.50063 0.0746,9.75072 0.18812,15.48397 0.15693,2.16259 0.14185,16.20754 0.0282,2.17062 0.0508,4.34131 0.0845,6.51185 0.0739,4.76807 0.14495,5.51106 0.1084,10.01662 -0.0101,1.24051 -0.0746,2.48038 -0.0731,3.72093 0.002,1.86687 0.11018,3.6325 0.20346,5.48869 0.0575,2.15038 0.31064,4.28339 0.61285,6.41027 0,0 3.48459,1.72558 3.48459,1.72558 v 0 c -0.15937,-2.12901 -0.57486,-4.23 -0.59703,-6.37064 -0.0777,-1.67292 -0.18626,-3.85065 -0.22669,-5.48334 -0.11478,-4.63432 -0.01,-3.29985 -0.0594,-8.28685 -0.0401,-4.01319 -0.17714,-8.02505 -0.2025,-12.03847 -0.0538,-20.04647 -0.60748,-40.08571 -0.88358,-60.12967 -0.33015,-28.00013 -0.0138,3.10167 -0.14719,-26.12156 -0.022,-4.8111 -0.10195,-9.62179 -0.12936,-14.43286 -0.028,-4.90675 -0.002,-9.81373 -0.0368,-14.720436 -0.0604,-8.621804 -0.24856,-19.617559 -0.3824,-28.260229 -0.23927,-13.467421 -0.14596,-11.366267 -0.57663,-24.164517 -0.22717,-6.750807 -0.37433,-13.544989 -1.01147,-20.275298 -0.0682,-0.720252 -0.18526,-1.435037 -0.27789,-2.152555 0,0 -3.59602,-1.754952 -3.59602,-1.754952 z" />
    <path
       style="fill:#000000;stroke-width:0.264583"
       id="path273"
       d="m 254.96964,24.763814 c 0.2368,1.537509 0.22336,1.293518 0.34857,3.458834 0.33034,5.713066 0.32417,7.062496 0.40165,13.217609 0.11301,8.976977 0.13306,16.00916 0.18344,25.139645 0.28256,40.147948 -0.0256,-9.125463 0.10615,32.198312 0.0169,5.293416 0.0918,10.586556 0.10791,15.879986 0.0143,4.70209 -0.0305,9.40423 -0.0165,14.10632 0.0225,7.58092 0.11523,15.16148 0.1688,22.74224 0.014,2.98905 0.0399,5.97806 0.0421,8.96714 0.002,2.59003 -0.0317,5.18001 -0.0296,7.77004 0.008,10.35138 0.11497,20.70266 0.12883,31.0541 -0.0209,10.10855 -0.0109,20.21675 -0.0831,30.3249 -0.0335,0.84049 -0.0958,1.68033 -0.10052,2.52147 -0.004,0.7788 0.066,1.55651 0.0732,2.33529 0.0156,1.69572 -0.0431,3.39438 -0.0338,5.09099 0,0 3.52709,1.80274 3.52709,1.80274 v 0 c 0.12492,-3.32467 -0.11534,-6.65639 0.002,-9.9833 0.004,-5.4595 -0.1091,-10.91862 -0.11312,-16.37805 -0.002,-2.15652 0.0416,-4.31289 0.043,-6.46941 0.002,-2.52449 -0.0227,-5.04894 -0.0341,-7.57341 -0.007,-2.75163 -0.0242,-5.50325 -0.0197,-8.25488 0.012,-7.35887 0.0906,-8.32074 0.0449,-15.46938 -0.0514,-8.02687 -0.23673,-16.05336 -0.18876,-24.08103 -0.0389,-3.50509 -0.0667,-7.01031 -0.11659,-10.51526 -0.0584,-4.10218 -0.16702,-8.20364 -0.20829,-12.30603 -0.0474,-4.71428 -0.0324,-9.42898 -0.0578,-14.14343 -0.0859,-15.99548 -0.20204,-31.991153 -0.0346,-47.986795 -0.021,-4.663718 -0.0506,-9.327406 -0.0631,-13.991158 -0.0422,-15.818742 0.0857,-5.893375 -0.13446,-18.647167 -0.0322,-1.865447 -0.0399,-3.731477 -0.0963,-5.59635 -0.0532,-1.759246 -0.10696,-2.111057 -0.25711,-3.515151 0,0 -3.59011,-1.698815 -3.59011,-1.698815 z" />
    <path
       style="fill:#000000;stroke-width:0.264583"
       id="path275"
       d="m 292.76131,21.847653 c 0.10077,12.219352 0.0671,24.43866 0.0343,36.658367 0.0179,3.325727 0.0484,6.65141 0.0537,9.977183 0.006,3.606186 -0.0283,7.21237 -0.0206,10.818553 0.0304,14.143811 0.12937,8.904523 0.0819,23.396104 -0.0819,24.98487 -0.14729,-0.88789 -0.0427,23.42055 -0.11574,6.72097 0.10121,13.441 0.0843,20.16156 -0.007,2.7727 -0.10863,5.54458 -0.11863,8.31726 -0.009,2.42313 0.0648,4.84603 0.0624,7.26917 -0.0996,8.37884 -0.0776,4.24665 -0.0705,12.39656 -0.005,1.97215 -0.0105,3.94429 -0.0158,5.91645 0.0227,1.89711 0.0644,3.7941 0.0681,5.69135 0.003,1.7271 -0.0398,3.45402 -0.0471,5.18111 -0.0184,4.31726 -0.002,8.63509 -0.0141,12.95245 -0.017,1.19604 -0.0495,2.39196 -0.051,3.58813 -10e-4,1.11141 0.0368,2.22258 0.0426,3.33398 0.0208,3.96385 -0.0265,7.93014 -0.0543,11.89393 0.0102,0.68638 0.0795,5.09481 0.0746,5.821 -0.0438,6.54883 -0.0879,-1.12854 -0.10389,4.66327 -0.003,1.0852 0.026,2.17031 0.0257,3.25552 -0.0713,1.21916 0.0712,2.43807 0.049,3.65677 -0.0152,0.83256 -0.0819,1.67513 -0.12148,2.508 0,0 3.50047,1.82344 3.50047,1.82344 v 0 c 0.0306,-0.25253 0.16258,-1.30467 0.16515,-1.49771 0.005,-0.35325 -0.0584,-0.7049 -0.0594,-1.05818 -10e-4,-0.37761 0.0512,-0.75399 0.0531,-1.13159 0.004,-0.83342 -0.1008,-1.66538 -0.0521,-2.49972 0.0262,-4.59071 -0.1069,-9.17951 -0.0564,-13.77034 0.1025,-6.8745 0.0171,1.02358 -0.01,-5.87632 -0.004,-0.97372 0.0275,-1.9473 0.0307,-2.92102 0.0108,-3.3436 -0.0722,-6.68754 0.0181,-10.03082 -0.0541,-3.85267 -0.0768,-4.34286 -0.0652,-8.28804 0.005,-1.8122 0.0736,-8.22001 0.0702,-9.87415 -0.004,-1.89531 -0.0459,-3.79037 -0.0569,-5.68565 -0.0114,-1.97651 -0.007,-3.95308 -0.01,-5.92962 0.009,-9.35344 0.0209,-18.70814 -0.0273,-28.06146 -0.0165,-3.19602 -0.0736,-6.3918 -0.0792,-9.58786 -0.006,-3.51631 0.0291,-7.03258 0.0437,-10.54887 -0.13706,-18.96749 -0.0922,-4.02999 0.0271,-23.4285 0.13207,-21.480749 -0.0125,-2.57156 -0.0484,-23.379039 -0.0119,-6.913054 0.10325,-13.825934 0.0782,-20.739044 -0.0409,-5.658168 -0.103,-11.471323 -0.0708,-17.135888 0.0129,-2.275033 0.0707,-4.549629 0.0897,-6.82462 0.0352,-4.212333 0.022,-8.42536 0.0647,-12.637714 0,0 -3.522,-1.794552 -3.522,-1.794552 z" />
    <path
       style="fill:#000000;stroke-width:0.264583"
       id="path389"
       d="M 8.1486697,19.077282 C 19.04834,18.942588 29.951402,18.957888 40.85223,18.958598 c 4.533953,-0.02834 9.067821,-0.07644 13.601853,-0.08502 10.697244,-0.02025 21.394512,0.04557 32.091772,0.03547 18.024255,-0.01703 36.048405,-0.01586 54.072665,-0.04133 20.92047,-0.121612 41.83701,0.336066 62.75412,0.614942 9.64166,0.128546 18.4561,0.206844 28.0848,0.301311 17.62748,0.237232 35.25573,0.332608 52.88455,0.383849 7.35997,0.0062 14.72004,-0.0013 22.07977,0.04688 0.47001,-0.01361 0.94004,-0.02722 1.41007,-0.04083 0,0 -3.15791,-2.293629 -3.15791,-2.293629 v 0 c -0.48654,0.0016 -0.97311,0.0032 -1.45968,0.0047 -7.30655,0.03384 -14.61188,0.08558 -21.91853,0.06895 -6.52407,-0.06185 -13.04563,-0.0054 -19.56994,-0.01451 -11.03896,-0.01539 -22.07802,-0.102518 -33.11619,-0.229231 -30.27633,-0.312514 -60.5509,-0.817352 -90.82921,-0.90451 -5.93387,0.01597 -30.20692,0.08456 -35.94304,0.08665 -6.034251,0.0022 -12.06849,-0.0258 -18.102744,-0.0258 -5.518224,2e-6 -11.036432,0.03318 -16.554653,0.02581 -5.182484,-0.0069 -10.364835,-0.05806 -15.547311,-0.06868 -4.568955,-0.0094 -9.137925,0.0058 -13.706888,0.0087 C 29.16932,16.81608 20.413717,16.75941 11.657449,16.7496 9.7182301,16.7474 7.7790999,16.68862 5.8399544,16.70564 c -0.2949932,0.0026 -0.5889767,0.03489 -0.8834651,0.05233 0,0 3.1921804,2.319255 3.1921804,2.319255 z" />
    <path
       style="fill:#000000;stroke-width:0.264583"
       id="path391"
       d="M 6.8077734,58.32016 C 18.16074,58.28323 29.513854,58.137627 40.867088,58.135513 c 5.062103,-0.0011 10.124154,0.03354 15.186231,0.0503 36.472259,-0.08173 72.944571,-0.05198 109.416851,-0.131114 5.62666,0.03763 11.25321,0.0985 16.87998,0.112893 9.15149,0.02339 18.30302,-0.03176 27.45453,-0.02117 4.61647,0.0053 15.85422,0.04063 20.73952,-0.0098 2.9029,-0.02996 5.80509,-0.109294 8.70763,-0.163938 11.29618,-0.341588 22.58869,-0.792671 33.88562,-1.100045 3.97868,-0.254175 7.9642,-0.266732 11.94875,-0.291994 1.83761,-0.03433 3.67522,0.04068 5.51219,0.0011 1.75559,-0.0019 3.50917,0.03935 5.26426,-0.0019 1.12474,-0.061 2.25012,0.04279 3.37386,0.04599 2.61845,0.0075 -1.21796,-0.07949 1.36975,-0.01042 0,0 -3.26303,-2.370704 -3.26303,-2.370704 v 0 c -1.55705,0.06262 -3.1161,-0.0067 -4.67413,0.01476 -1.75551,0.01222 -3.50988,-0.06538 -5.26484,6.6e-5 -1.83359,-0.07618 -3.67636,0.07858 -5.51312,0.0032 -3.98007,0.0085 -7.95515,0.141552 -11.93136,0.321521 -6.08403,0.303866 -0.16499,0.02669 -7.24296,0.291492 -8.83199,0.33043 -17.66384,0.677669 -26.49943,0.903041 -8.10174,0.174152 -9.97015,0.248812 -18.29679,0.2783 -3.67257,0.01299 -7.34516,-0.02267 -11.01775,-0.01889 -44.49328,0.04575 22.6478,0.03827 -27.32232,0.117227 -5.58604,0.0088 -11.17207,-0.01625 -16.75811,-0.02434 -6.05758,0.01003 -12.11514,0.0372 -18.17272,0.03007 -18.01142,-0.02117 -20.09835,-0.135183 -37.97297,-0.114535 -6.16696,0.0071 -12.333745,0.07414 -18.500704,0.08349 -11.661351,0.0177 -23.322705,-0.08057 -34.984081,-0.02312 -16.546449,0.0087 -33.092888,-0.04118 -49.6388755,-0.151429 0,0 3.2547039,2.364682 3.2547039,2.364682 z" />
    <path
       style="fill:#000000;stroke-width:0.264583"
       id="path393"
       d="m 9.5171999,96.235147 c 24.8466271,0.401756 49.6936031,0.800724 74.5391971,1.270788 6.670035,0.09305 13.339813,0.206791 20.010113,0.279141 4.33107,0.04698 35.79366,0.267417 40.02189,0.295412 17.30059,0.114557 34.60115,0.214247 51.90198,0.28411 10.43977,-0.05908 20.8794,0.01902 31.31904,0.05434 5.34485,0.01807 10.68722,-0.0046 16.03137,0.08237 3.83537,0.07185 7.67172,0.127968 11.50617,0.231537 4.152,0.112146 -0.2415,0.07215 3.60219,0.08805 5.02662,0.139166 10.05394,0.208445 15.08049,0.345821 0.67924,0.02019 1.35821,0.05217 2.03769,0.06058 2.17461,0.02692 4.35036,-0.0034 6.52497,0.06549 2.74055,0.134641 1.42885,0.08633 3.93486,0.152932 2.2606,0.125034 4.5217,0.07566 6.77436,0.324157 1.36477,0.08156 2.72743,0.134527 4.09477,0.132976 0.288,0.0076 0.576,0.01516 0.864,0.02276 0,0 -3.17654,-2.328826 -3.17654,-2.328826 v 0 c -0.31361,-0.02035 -0.62722,-0.04069 -0.94083,-0.06104 -1.36146,-0.0055 -2.72052,-0.03228 -4.07662,-0.155861 -1.17459,-0.06174 -0.55351,-0.01132 -1.86211,-0.164881 -0.33515,-0.01902 -0.67138,0.0029 -1.00706,0.0055 -1.27209,0.0098 -2.53952,-0.03846 -3.81135,-0.07241 -4.17697,-0.08901 -8.3508,-0.323463 -12.53045,-0.295695 -5.02306,-0.119505 -10.0482,-0.12118 -15.06851,-0.336217 -5.03531,-0.07945 -10.06708,-0.275114 -15.10314,-0.31346 -8.42001,-0.09546 0.11443,-0.03115 -9.41954,0.01109 -12.54944,0.05558 -25.09904,0.01347 -37.64866,0.06105 -5.04613,0.0092 -10.09227,0.03779 -15.1384,0.02763 -5.59746,-0.01127 -31.67134,-0.183882 -36.6264,-0.214108 C 121.35187,95.966402 101.35347,95.817719 81.356068,95.537179 48.442579,94.963107 75.828324,95.478113 44.803555,94.797785 33.494914,94.549801 22.18375,94.369168 10.876238,94.069125 9.3668419,94.029072 7.8581423,93.966088 6.3490944,93.914568 c 0,0 3.1681055,2.320576 3.1681055,2.320576 z" />
    <path
       style="fill:#000000;stroke-width:0.264583"
       id="path397"
       d="m 5.311809,128.93753 c 0.8622975,0.0677 1.7263552,0.11588 2.5868923,0.20317 1.816354,0.18424 3.6255487,0.43614 5.4428007,0.6113 6.617916,0.63787 15.962657,1.34825 22.232541,1.67271 10.660904,0.5517 27.888999,1.00709 38.1346,1.31702 44.318037,1.13056 88.649657,1.54157 132.979297,1.89558 20.70917,-0.0109 41.41886,0.13208 62.12799,0.0771 5.432,0.13943 10.87027,-0.10268 16.301,0.0619 2.35469,0.0415 4.7094,-0.12384 7.06324,-0.0289 1.17536,0.0474 1.5594,0.10441 2.74304,0.22336 1.53133,0.11936 3.05943,0.33821 4.59111,0.44696 0.94488,0.0671 1.89333,0.0711 2.83876,0.12923 0,0 -3.17973,-2.34497 -3.17973,-2.34497 v 0 c -0.0715,-0.004 -2.82327,-0.14177 -2.85465,-0.14438 -1.53521,-0.12736 -3.06757,-0.32309 -4.60192,-0.46343 -0.1297,-0.01 -2.65322,-0.19631 -2.77487,-0.19953 -0.49874,-0.0132 -0.99772,0.0154 -1.49659,0.0218 -1.85047,0.0235 -3.69935,-0.0197 -5.54964,0.0201 -5.36926,-0.0397 -10.73837,0.10127 -16.10815,0.0786 -22.01781,-0.0872 12.69442,0.011 -13.09068,0.0912 -3.04115,0.009 -6.0821,-0.0621 -9.12326,-0.0639 -13.25184,-0.008 -26.50423,0.22444 -39.75596,0.007 -12.80441,-0.006 -24.36071,0.0107 -37.21665,-0.0956 -19.48272,-0.16109 -26.36764,-0.35332 -46.21298,-0.63573 -8.29973,-0.11811 -16.60072,-0.15582 -24.899651,-0.32066 -8.128389,-0.16146 -16.254064,-0.43882 -24.381098,-0.65822 -6.977554,-0.23025 -13.957077,-0.40703 -20.932663,-0.69074 -10.183683,-0.41421 -20.629004,-0.9784 -30.811049,-1.81113 -8.357072,-0.68347 -7.652311,-0.78444 -14.6024782,-1.52038 -0.8864512,-0.0939 -1.7757941,-0.15806 -2.6636912,-0.23709 0,0 3.2144394,2.35739 3.2144394,2.35739 z" />
    <path
       style="fill:#000000;stroke-width:0.264583"
       id="path399"
       d="m 5.8303919,168.9485 c 2.1200919,-0.15957 1.7052096,-0.14384 4.6656241,-0.2364 14.094553,-0.44068 28.202651,-0.47626 42.302242,-0.56808 24.387979,-0.11032 48.776692,-0.26091 73.165072,-0.22256 53.4148,0.084 -16.51067,0.0817 33.92399,0.0662 24.76114,0.104 49.51527,-0.52241 74.27162,-0.87759 2.81638,-0.10032 5.63319,-0.18913 8.44914,-0.30097 2.54371,-0.10102 5.08553,-0.2484 7.62968,-0.33763 2.54657,-0.0893 5.09477,-0.12428 7.64184,-0.198 2.58278,-0.0747 5.16458,-0.18339 7.74764,-0.24737 4.81894,-0.11936 10.4594,-0.16952 15.29535,-0.22554 6.57717,0.003 13.15522,-0.13866 19.73244,-0.11266 4.11213,0.0536 2.14167,0.0401 5.91138,0.0462 0,0 -3.13053,-2.27509 -3.13053,-2.27509 v 0 c -1.97953,-0.0104 -3.95877,-0.0693 -5.93833,-0.0641 -1.18158,0.003 -2.36263,0.0548 -3.54415,0.0675 -5.33339,0.0575 -10.66723,0.0815 -16.00025,0.18688 -15.63427,0.17369 -31.26158,0.5952 -46.88428,1.22786 -15.04819,0.49913 -3.91651,0.19585 -20.25104,0.44334 -17.93806,0.27179 -35.87536,0.73396 -53.81747,0.5698 -11.92045,0.0434 -21.73787,0.0889 -33.70798,0.091 -24.436449,0.004 -48.873092,-0.0904 -73.309162,0.12011 -15.811931,0.0374 -31.629589,0.0111 -47.435589,0.49867 0,0 3.2827629,2.34844 3.2827629,2.34844 z" />
    <path
       style="fill:#000000;stroke-width:0.264583"
       id="path403"
       d="m 5.7503755,206.6009 c 1.6369395,0.0311 3.2735924,0.088 4.9108185,0.0933 3.607387,0.0117 7.214747,-0.0534 10.822134,-0.0421 5.537138,0.0173 11.073898,0.10204 16.611003,0.12761 6.955761,0.0321 13.911654,0.024 20.867454,0.0455 24.24683,0.075 23.874923,0.0937 48.589335,0.25287 29.8621,0.0437 59.72326,0.30984 89.58516,0.40718 30.35002,0.0989 3.41875,-0.0751 30.1301,0.12486 5.05922,0.003 12.4694,-0.005 17.76446,0.0361 2.84893,0.0222 5.69727,0.10381 8.54626,0.11648 7.73096,0.0344 -2.72504,-0.0871 3.97793,5e-5 5.41714,0.21417 10.83028,0.5103 16.25043,0.64251 5.01848,0.1209 10.03995,0.14945 15.05984,0.12861 1.76882,0.0553 3.5379,-0.009 5.30646,0.006 1.43512,0.0125 0.29509,0.0519 1.47166,-0.005 1.01034,0.0599 2.01856,0.0128 3.02909,-0.004 0,0 -3.19188,-2.31889 -3.19188,-2.31889 v 0 c -1.01309,-0.0169 -2.02431,-0.0279 -3.03716,-0.001 -2.23189,-0.007 -4.46595,-0.006 -6.69594,0.0573 -5.02272,-0.0868 -10.04723,-0.005 -15.06942,-0.14851 -5.46108,-0.1281 -10.91509,-0.44592 -16.37048,-0.71584 -4.07395,0.0205 -8.14751,0.0992 -12.22156,0.10225 -2.48907,0.002 -4.97811,-0.0168 -7.46717,-0.0253 -3.41967,0.006 -6.83934,0.0111 -10.25901,0.0166 -21.86753,0.10372 -5.1983,0.0601 -29.94374,0.0101 -29.82146,-0.0602 -59.64303,-0.11493 -89.464,-0.32016 -8.328049,-0.0544 -16.656095,-0.10885 -24.984141,-0.16328 -7.908711,-0.0589 -15.817385,-0.12339 -23.726135,-0.1768 -17.885555,-0.12077 -35.776158,-0.10273 -53.6572433,-0.5676 0,0 3.1657448,2.32111 3.1657448,2.32111 z" />
    <path
       style="fill:#000000;stroke-width:0.264583"
       id="path407"
       d="m 5.9743955,248.48593 c 15.9865435,-0.0771 31.9751895,-0.10395 47.9624385,-0.12943 24.434041,0.017 48.868696,-0.14194 73.302716,-0.0741 38.32235,0.10642 -1.63371,0.17787 35.48641,0.0604 17.05872,0.0475 34.11765,-0.041 51.17635,-0.0102 5.52238,0.01 11.04463,0.069 16.56703,0.0718 62.73251,0.0316 -28.77043,-0.16326 29.31635,-0.0216 3.92107,-0.0242 7.84207,-0.0729 11.76322,-0.0726 3.18532,2.7e-4 6.3704,0.0563 9.55566,0.0744 6.30301,0.0358 12.60594,0.044 18.90874,0.11315 0.84045,-0.003 1.68093,-0.005 2.52138,-0.008 0,0 -3.17606,-2.30754 -3.17606,-2.30754 v 0 c -0.84355,5.3e-4 -1.68712,7.9e-4 -2.53066,0.001 -8.15949,-0.0693 2.88057,-0.003 -6.54892,0.0443 -1.70595,0.009 -3.41188,-0.0256 -5.11783,-0.0258 -9.42335,-7.9e-4 -18.84651,0.12492 -28.26996,0.0778 -32.28444,-0.015 -64.56879,0.11812 -96.85328,0.11001 -5.83254,-0.022 -11.66504,-0.0654 -17.49762,-0.066 -45.399478,-0.004 10.00307,0.14899 -36.31476,0.0762 -6.270126,-0.01 -12.540126,-0.0671 -18.810251,-0.0721 -41.525314,-0.0335 4.241646,0.1604 -36.340864,-0.0511 -11.540284,0.007 -17.965074,0.0239 -29.185909,-0.0164 -3.133297,-0.0113 -6.266478,-0.0489 -9.399788,-0.0555 -1.699935,-0.004 -3.3998459,0.0352 -5.0997533,0.025 -1.1878953,-0.007 -2.375069,-0.0642 -3.5629146,-0.0772 -0.3421112,-0.004 -0.6840297,0.0179 -1.0260447,0.0268 0,0 3.1743201,2.30628 3.1743201,2.30628 z" />
  </g>
</svg>
